<svg width="24" height="25" viewBox="0 0 24 25" fill="none" xmlns="http://www.w3.org/2000/svg">
<g opacity="0.7">
<path d="M4.79712 20.6123C4.63868 20.6218 4.48002 20.5976 4.33162 20.5413C4.18322 20.485 4.04845 20.3978 3.93621 20.2856C3.82397 20.1733 3.73682 20.0386 3.68051 19.8902C3.62419 19.7418 3.6 19.5831 3.60952 19.4247V5.17347C3.59981 5.01498 3.62387 4.85623 3.68011 4.70774C3.73636 4.55925 3.8235 4.4244 3.93578 4.31213C4.04806 4.19985 4.18291 4.1127 4.3314 4.05645C4.47989 4.00021 4.63864 3.97615 4.79712 3.98587H9.54753C9.70597 3.97634 9.86463 4.00054 10.013 4.05685C10.1614 4.11316 10.2962 4.20032 10.4084 4.31255C10.5207 4.42479 10.6078 4.55956 10.6641 4.70796C10.7205 4.85636 10.7447 5.01502 10.7351 5.17347C10.7447 5.33191 10.7205 5.49057 10.6641 5.63897C10.6078 5.78737 10.5207 5.92214 10.4084 6.03438C10.2962 6.14662 10.1614 6.23377 10.013 6.29008C9.86463 6.3464 9.70597 6.37059 9.54753 6.36107H5.98472V18.2371H9.54753C9.8625 18.2371 10.1646 18.3622 10.3873 18.5849C10.61 18.8076 10.7351 19.1097 10.7351 19.4247C10.7351 19.7396 10.61 20.0417 10.3873 20.2644C10.1646 20.4872 9.8625 20.6123 9.54753 20.6123H4.79712ZM15.8418 17.8808C15.7294 17.7735 15.64 17.6444 15.5789 17.5016C15.5177 17.3587 15.4862 17.2049 15.4862 17.0495C15.4862 16.8941 15.5177 16.7403 15.5789 16.5974C15.64 16.4545 15.7294 16.3255 15.8418 16.2182L18.5733 13.4867H9.54753C9.38909 13.4962 9.23042 13.472 9.08202 13.4157C8.93362 13.3594 8.79885 13.2722 8.68661 13.16C8.57438 13.0477 8.48722 12.913 8.43091 12.7646C8.3746 12.6162 8.3504 12.4575 8.35993 12.2991C8.3504 12.1406 8.3746 11.982 8.43091 11.8336C8.48722 11.6852 8.57438 11.5504 8.68661 11.4382C8.79885 11.3259 8.93362 11.2388 9.08202 11.1825C9.23042 11.1261 9.38909 11.1019 9.54753 11.1115H18.5733L15.8418 8.37999C15.7293 8.27274 15.6397 8.14375 15.5785 8.00086C15.5173 7.85796 15.4857 7.70412 15.4857 7.54867C15.4857 7.39321 15.5173 7.23937 15.5785 7.09648C15.6397 6.95358 15.7293 6.8246 15.8418 6.71735C15.949 6.60466 16.0779 6.51494 16.2208 6.45363C16.3637 6.39232 16.5176 6.36071 16.6731 6.36071C16.8286 6.36071 16.9825 6.39232 17.1254 6.45363C17.2683 6.51494 17.3973 6.60466 17.5045 6.71735L22.2549 11.4677C22.3736 11.5865 22.3736 11.7053 22.4924 11.824C22.6116 12.1295 22.6116 12.4686 22.4924 12.7741C22.4924 12.8929 22.3736 13.0116 22.2549 13.1304L17.5045 17.8808C17.3971 17.9932 17.2681 18.0826 17.1252 18.1437C16.9823 18.2049 16.8285 18.2364 16.6731 18.2364C16.5177 18.2364 16.3639 18.2049 16.221 18.1437C16.0782 18.0826 15.9492 17.9932 15.8418 17.8808Z" fill="#060302"/>
</g>
</svg>
