<svg width="16" height="21" viewBox="0 0 16 21" fill="none" xmlns="http://www.w3.org/2000/svg">
<path d="M6.155 13.773L6.146 13.752C6.0108 13.7151 5.87674 13.6741 5.744 13.629L5.734 13.625C4.35256 13.1524 3.15348 12.2596 2.30462 11.0717C1.45576 9.88374 0.999598 8.4601 0.999998 7.00004C0.999552 5.20815 1.6863 3.48431 2.91879 2.1836C4.15127 0.882892 5.83564 0.104356 7.62496 0.00835286C9.41428 -0.08765 11.1723 0.506191 12.5369 1.66756C13.9015 2.82893 14.7687 4.46939 14.96 6.25104C15.004 6.66304 14.664 7.00004 14.25 7.00004C13.836 7.00004 13.505 6.66204 13.45 6.25204C13.317 5.28431 12.9287 4.36945 12.325 3.60149C11.7213 2.83352 10.9241 2.24015 10.0151 1.88237C9.10617 1.52458 8.11834 1.41528 7.15317 1.56569C6.18799 1.71611 5.28027 2.12082 4.5233 2.73823C3.76633 3.35563 3.18742 4.16347 2.84606 5.07871C2.5047 5.99395 2.4132 6.98359 2.58098 7.9459C2.74875 8.90821 3.16974 9.80849 3.80068 10.5542C4.43162 11.2999 5.24976 11.8642 6.171 12.189C6.35658 11.7696 6.68071 11.4266 7.08906 11.2177C7.49741 11.0088 7.96516 10.9466 8.41393 11.0415C8.86269 11.1364 9.26518 11.3827 9.55394 11.7391C9.8427 12.0955 10.0002 12.5403 10 12.999C10 13.597 9.738 14.133 9.323 14.499C8.95776 14.8216 8.48731 14.9998 8 15C7.60548 15.0014 7.21944 14.8855 6.89093 14.6671C6.56242 14.4486 6.30626 14.1374 6.155 13.773ZM3.997 14.5C3.25996 14.1062 2.58504 13.6058 1.994 13.015C1.44614 13.0788 0.940772 13.3415 0.573904 13.7534C0.207036 14.1652 0.00422512 14.6975 0.0039978 15.249V15.827C0.0039978 16.719 0.321998 17.583 0.901998 18.262C2.468 20.096 4.854 21.002 8 21.002C11.146 21.002 13.533 20.096 15.102 18.262C15.6834 17.5828 16.0029 16.7181 16.003 15.824V15.249C16.003 14.6526 15.7662 14.0807 15.3447 13.6588C14.9232 13.2369 14.3514 12.9996 13.755 12.999H11.5C11.5 13.537 11.38 14.045 11.163 14.499H13.755C13.9536 14.4996 14.1438 14.5788 14.284 14.7194C14.4243 14.86 14.503 15.0505 14.503 15.249V15.824C14.5032 16.3605 14.3116 16.8793 13.963 17.287C12.706 18.755 10.739 19.501 8 19.501C5.261 19.501 3.296 18.755 2.043 17.288C1.69457 16.8806 1.50308 16.3621 1.503 15.826V15.249C1.503 15.0501 1.58202 14.8594 1.72267 14.7187C1.86332 14.5781 2.05409 14.499 2.253 14.499L3.997 14.5ZM4 7.00004C4.00018 6.31009 4.17882 5.63192 4.51857 5.03142C4.85831 4.43091 5.34761 3.9285 5.93892 3.57299C6.53022 3.21748 7.20343 3.02096 7.89313 3.00253C8.58284 2.98409 9.26558 3.14437 9.87503 3.46779C10.4845 3.79121 10.9999 4.26678 11.3713 4.84827C11.7426 5.42977 11.9572 6.09743 11.9942 6.78639C12.0313 7.47534 11.8895 8.16216 11.5826 8.78012C11.2757 9.39807 10.8143 9.92615 10.243 10.313C9.61362 9.78771 8.81981 9.49999 8 9.50004C8.66304 9.50004 9.29892 9.23665 9.76777 8.76781C10.2366 8.29897 10.5 7.66308 10.5 7.00004C10.5 6.337 10.2366 5.70111 9.76777 5.23227C9.29892 4.76343 8.66304 4.50004 8 4.50004C7.33696 4.50004 6.70107 4.76343 6.23223 5.23227C5.76339 5.70111 5.5 6.337 5.5 7.00004C5.5 7.66308 5.76339 8.29897 6.23223 8.76781C6.70107 9.23665 7.33696 9.50004 8 9.50004C7.146 9.50004 6.364 9.80604 5.758 10.313C5.21589 9.94719 4.77202 9.45369 4.46547 8.87597C4.15891 8.29826 3.99906 7.65405 4 7.00004Z" fill="#767372"/>
</svg>
