<svg width="25" height="25" viewBox="0 0 25 25" fill="none" xmlns="http://www.w3.org/2000/svg">
<path d="M12.7297 23.3744C12.027 23.3616 11.3263 23.2957 10.6336 23.1773H10.6134L10.3545 23.1369C10.071 23.0599 9.82237 22.8884 9.6496 22.6508C9.47684 22.4133 9.39034 22.1239 9.4044 21.8305L9.52316 20.4054L8.57308 19.9304L7.623 20.9992C7.3657 21.2035 7.04993 21.3204 6.72161 21.3329C6.48996 21.3341 6.26443 21.2586 6.08031 21.118C4.84131 20.1147 3.82935 18.8598 3.11131 17.4364C2.98574 17.177 2.95261 16.8825 3.01741 16.6017C3.08221 16.3209 3.24105 16.0706 3.46759 15.8925L4.65519 15.0612L4.41648 14.1123L3.11012 13.8748C2.8227 13.8296 2.55957 13.6869 2.36494 13.4707C2.17031 13.2544 2.05602 12.9778 2.04128 12.6872C2.02976 11.0809 2.39588 9.49435 3.11012 8.05553C3.18133 7.8549 3.31299 7.68127 3.48696 7.55855C3.66094 7.43583 3.86868 7.37006 4.08158 7.37029C4.23725 7.37154 4.39124 7.40258 4.53524 7.46173L5.96036 7.93677L6.55416 7.10545L5.8416 5.79909C5.75872 5.69303 5.69873 5.57095 5.66541 5.44053C5.6321 5.31012 5.62617 5.17422 5.64802 5.0414C5.70148 4.77182 5.85563 4.53274 6.07912 4.37278C7.33906 3.39486 8.79866 2.70601 10.3545 2.35505C10.4327 2.33918 10.5122 2.33122 10.592 2.3313C10.8375 2.33686 11.0771 2.40795 11.2859 2.5372C11.4947 2.66645 11.6651 2.84916 11.7796 3.06642L12.2546 4.37278H13.3235L13.7985 3.06642C13.9323 2.81334 14.1392 2.60642 14.3923 2.47262C14.4153 2.4721 14.4378 2.46651 14.4584 2.45624C14.4789 2.44597 14.4969 2.43129 14.5111 2.41324C14.5252 2.39513 14.5432 2.38041 14.5638 2.37013C14.5843 2.35986 14.6069 2.3543 14.6298 2.35386H15.2236C16.7702 2.73197 18.2244 3.41869 19.499 4.37278C19.7316 4.54868 19.8866 4.8083 19.9309 5.09655C19.9753 5.3848 19.9055 5.67898 19.7365 5.91667L19.024 7.22303L19.6178 7.93559L20.9241 7.46055C21.0468 7.41081 21.1778 7.38501 21.3101 7.38454C21.5276 7.39153 21.7391 7.45756 21.9219 7.57555C22.1048 7.69354 22.2521 7.85905 22.3481 8.05435C23.0623 9.49316 23.4284 11.0797 23.4169 12.686C23.4169 13.001 23.2918 13.303 23.0691 13.5258C22.8463 13.7485 22.5443 13.8736 22.2293 13.8736H22.1105L20.9229 13.9924L20.6854 15.0612L21.873 15.8925C22.1214 16.0531 22.2976 16.304 22.3641 16.5922C22.4306 16.8804 22.3823 17.1832 22.2293 17.4364C21.5491 18.8838 20.5308 20.1465 19.2603 21.118C19.0424 21.2816 18.7775 21.3707 18.505 21.3721C18.3533 21.3774 18.2026 21.3464 18.0654 21.2815C17.9282 21.2166 17.8085 21.1198 17.7164 20.9992L16.6476 19.9304L15.6975 20.4054L15.8163 21.8305C15.8303 22.1239 15.7438 22.4133 15.5711 22.6508C15.3983 22.8884 15.1496 23.0599 14.8662 23.1369C14.1638 23.2878 13.448 23.3674 12.7297 23.3744ZM8.73222 17.4601C9.01059 17.4579 9.28422 17.5323 9.52316 17.6751L11.1858 18.5064L11.3046 18.6252C11.5625 18.8189 11.7719 19.0699 11.9162 19.3585C12.0605 19.6471 12.1357 19.9652 12.1359 20.2878L11.8984 21.0004H13.561L13.4422 20.2878V20.0503C13.4479 19.7315 13.5391 19.42 13.7062 19.1485C13.8733 18.8769 14.1103 18.6552 14.3923 18.5064L16.055 17.6751C16.1189 17.6104 16.2024 17.5686 16.2925 17.5563C16.4762 17.4942 16.6686 17.4622 16.8625 17.4613C17.3056 17.4728 17.7323 17.6316 18.0751 17.9126L18.6689 18.5064C19.0535 18.0949 19.4105 17.6585 19.7377 17.2001L19.1439 16.725L19.0252 16.6063C18.7931 16.3769 18.6184 16.0961 18.5152 15.7866C18.412 15.4771 18.3833 15.1476 18.4314 14.8249L18.9064 13.0435C18.9157 12.9525 18.9579 12.868 19.0252 12.8059C19.1333 12.4978 19.323 12.2246 19.5739 12.0155C19.8248 11.8064 20.1276 11.6692 20.4503 11.6183L21.1628 11.4996C21.1035 11.2621 21.0441 10.9913 20.9847 10.7276C20.9253 10.464 20.8659 10.1932 20.8066 9.9557L19.9752 10.312H19.7377C19.62 10.3316 19.5008 10.3415 19.3814 10.3417C19.1139 10.3399 18.8495 10.2836 18.6045 10.1762C18.3595 10.0688 18.1389 9.91252 17.9563 9.71699L16.7687 8.29187L16.65 8.17311C16.4733 7.8877 16.3797 7.55869 16.3797 7.22303C16.3797 6.88737 16.4733 6.55835 16.65 6.27295L17.0062 5.56039L15.9374 5.02597L15.5811 4.84783L15.3436 5.56039C15.3436 5.59188 15.3311 5.62209 15.3088 5.64436C15.2865 5.66663 15.2563 5.67915 15.2248 5.67915C15.0942 5.98455 14.88 6.24687 14.6069 6.43595C14.3337 6.62503 14.0128 6.73319 13.681 6.74799H11.5421C11.2203 6.69486 10.9186 6.55677 10.668 6.34799C10.4175 6.13921 10.2272 5.86731 10.117 5.56039L9.87944 4.84783C9.72149 4.92621 9.5481 5.00696 9.38065 5.08535C9.06108 5.2217 8.75154 5.38044 8.45432 5.56039L8.8106 6.27295C8.87539 6.33679 8.91716 6.42033 8.92936 6.51047C9.04058 6.80381 9.0771 7.1202 9.03564 7.43117C8.99417 7.74214 8.87603 8.03791 8.69184 8.29187L7.50424 9.71699L7.38548 9.83575C6.99493 10.1768 6.50178 10.3778 5.98411 10.407C5.81346 10.4082 5.64415 10.3768 5.48532 10.3144L4.89152 10.0768C4.66139 10.5592 4.53977 11.0862 4.53524 11.6207L5.2478 11.7395H5.48532C5.79975 11.8202 6.08679 11.9838 6.31654 12.2131C6.5463 12.4424 6.71037 12.7292 6.79168 13.0435L7.26672 14.8249V15.0624C7.29357 15.3891 7.23026 15.7168 7.08367 16.01C6.93709 16.3032 6.71285 16.5505 6.4354 16.725L5.8416 17.2001C6.12333 17.6915 6.4845 18.1329 6.91044 18.5064L7.50424 17.9126L7.623 17.7939C7.95597 17.5848 8.33918 17.4695 8.73222 17.4601ZM12.7297 16.25C12.2589 16.2607 11.7908 16.1759 11.3537 16.0006C10.9166 15.8254 10.5195 15.5633 10.1865 15.2303C9.85355 14.8973 9.59151 14.5003 9.41625 14.0632C9.241 13.6261 9.15617 13.158 9.16688 12.6872C9.15617 12.2164 9.241 11.7483 9.41625 11.3112C9.59151 10.8741 9.85355 10.477 10.1865 10.144C10.5195 9.81104 10.9166 9.549 11.3537 9.37375C11.7908 9.19849 12.2589 9.11366 12.7297 9.12437C13.2005 9.11366 13.6686 9.19849 14.1057 9.37375C14.5428 9.549 14.9398 9.81104 15.2728 10.144C15.6058 10.477 15.8679 10.8741 16.0431 11.3112C16.2184 11.7483 16.3032 12.2164 16.2925 12.6872C16.3032 13.158 16.2184 13.6261 16.0431 14.0632C15.8679 14.5003 15.6058 14.8973 15.2728 15.2303C14.9398 15.5633 14.5428 15.8254 14.1057 16.0006C13.6686 16.1759 13.2005 16.2607 12.7297 16.25ZM12.7297 11.4996C12.5713 11.4904 12.4128 11.5149 12.2646 11.5713C12.1164 11.6278 11.9818 11.715 11.8696 11.8271C11.7575 11.9393 11.6703 12.0739 11.6139 12.2221C11.5574 12.3703 11.5329 12.5288 11.5421 12.6872C11.5329 12.8455 11.5574 13.004 11.6139 13.1522C11.6703 13.3005 11.7575 13.4351 11.8696 13.5472C11.9818 13.6594 12.1164 13.7466 12.2646 13.803C12.4128 13.8595 12.5713 13.8839 12.7297 13.8748C12.888 13.8839 13.0465 13.8595 13.1948 13.803C13.343 13.7466 13.4776 13.6594 13.5898 13.5472C13.7019 13.4351 13.7891 13.3005 13.8455 13.1522C13.902 13.004 13.9264 12.8455 13.9173 12.6872C13.9266 12.5287 13.9023 12.3701 13.8459 12.2217C13.7895 12.0734 13.7024 11.9386 13.5902 11.8263C13.478 11.714 13.3434 11.6268 13.1951 11.5702C13.0467 11.5137 12.8881 11.4892 12.7297 11.4984V11.4996Z" fill="#060302"/>
</svg>
