<svg width="14" height="14" viewBox="0 0 14 14" fill="none" xmlns="http://www.w3.org/2000/svg">
<path d="M13.6431 6.17813L10.8306 8.605L11.6875 12.2344C11.7348 12.4314 11.7226 12.638 11.6525 12.8281C11.5824 13.0182 11.4576 13.1833 11.2937 13.3025C11.1299 13.4217 10.9344 13.4896 10.7319 13.4977C10.5294 13.5058 10.3291 13.4538 10.1562 13.3481L7 11.4056L3.84187 13.3481C3.66902 13.4532 3.46894 13.5047 3.26684 13.4963C3.06473 13.4879 2.86964 13.4199 2.70613 13.3008C2.54261 13.1817 2.41798 13.0169 2.34794 12.8271C2.27789 12.6374 2.26556 12.4311 2.3125 12.2344L3.1725 8.605L0.359999 6.17813C0.20706 6.04595 0.0964523 5.87164 0.0419882 5.67697C-0.0124758 5.4823 -0.00838189 5.2759 0.0537586 5.08354C0.115899 4.89119 0.233332 4.7214 0.391392 4.59539C0.549452 4.46938 0.741134 4.39272 0.942499 4.375L4.63 4.0775L6.0525 0.635001C6.1295 0.447387 6.26054 0.286907 6.42898 0.173963C6.59742 0.0610189 6.79564 0.000713348 6.99844 0.000713348C7.20124 0.000713348 7.39945 0.0610189 7.56789 0.173963C7.73633 0.286907 7.86738 0.447387 7.94437 0.635001L9.36625 4.0775L13.0537 4.375C13.2555 4.39207 13.4478 4.46829 13.6064 4.59413C13.765 4.71997 13.883 4.88982 13.9455 5.08241C14.0081 5.275 14.0124 5.48176 13.9579 5.67678C13.9034 5.87181 13.7926 6.04642 13.6394 6.17875L13.6431 6.17813Z" fill="#FCCB00"/>
</svg>
