<svg width="16" height="16" viewBox="0 0 16 16" fill="none" xmlns="http://www.w3.org/2000/svg">
<path d="M8.058 15.9999C5.83533 15.9999 3.94633 15.2223 2.391 13.6669C0.835665 12.1116 0.0579987 10.2226 0.0579987 7.99995C0.0579987 5.97395 0.717999 4.21728 2.038 2.72995C3.358 1.24261 4.99267 0.364614 6.942 0.0959473C6.996 0.0959473 7.049 0.0979473 7.101 0.101947C7.153 0.105947 7.204 0.111614 7.254 0.118947C6.91667 0.589614 6.64967 1.11295 6.453 1.68895C6.25633 2.26495 6.158 2.86861 6.158 3.49995C6.158 5.27795 6.78 6.78895 8.024 8.03295C9.268 9.27695 10.7793 9.89928 12.558 9.89995C13.192 9.89995 13.7963 9.80161 14.371 9.60495C14.9457 9.40828 15.4617 9.14128 15.919 8.80395C15.927 8.85395 15.9327 8.90495 15.936 8.95695C15.9393 9.00895 15.9413 9.06195 15.942 9.11595C15.686 11.0646 14.8143 12.6989 13.327 14.0189C11.8397 15.3389 10.084 15.9993 8.058 15.9999Z" fill="#767372"/>
</svg>
