<svg width="12" height="14" viewBox="0 0 12 14" fill="none" xmlns="http://www.w3.org/2000/svg">
<path d="M1.89533 2.04533C2.98396 0.956707 4.46045 0.345123 6 0.345123C7.53955 0.345123 9.01604 0.956707 10.1047 2.04533C11.1933 3.13396 11.8049 4.61045 11.8049 6.15C11.8049 7.68955 11.1933 9.16604 10.1047 10.2547L9.31333 11.0373C8.73022 11.6093 7.97333 12.3453 7.04267 13.2453C6.76295 13.5158 6.38909 13.667 6 13.667C5.61091 13.667 5.23705 13.5158 4.95733 13.2453L2.63 10.9813C2.33711 10.6942 2.09222 10.452 1.89533 10.2547C1.35628 9.71565 0.92867 9.07573 0.636932 8.37144C0.345194 7.66716 0.195038 6.91231 0.195038 6.15C0.195038 5.38768 0.345194 4.63283 0.636932 3.92855C0.92867 3.22427 1.35628 2.58435 1.89533 2.04533ZM9.39733 2.752C8.9511 2.30581 8.42136 1.95188 7.83834 1.71043C7.25533 1.46897 6.63047 1.34471 5.99943 1.34474C5.36839 1.34477 4.74354 1.46909 4.16055 1.71061C3.57757 1.95212 3.04785 2.3061 2.60167 2.75233C2.15548 3.19856 1.80155 3.72831 1.56009 4.31132C1.31863 4.89434 1.19437 5.5192 1.1944 6.15023C1.19444 6.78127 1.31876 7.40612 1.56027 7.98911C1.80179 8.5721 2.15577 9.10181 2.602 9.548L3.594 10.5267C4.13978 11.0604 4.826 11.7271 5.65267 12.5267C5.74588 12.6167 5.87041 12.667 6 12.667C6.12959 12.667 6.25412 12.6167 6.34733 12.5267L8.61067 10.3267C8.924 10.0196 9.18622 9.76 9.39733 9.548C10.2983 8.64696 10.8045 7.4249 10.8045 6.15067C10.8045 4.87643 10.2983 3.65438 9.39733 2.75333M6 4.33267C6.26282 4.33267 6.52306 4.38443 6.76588 4.48501C7.00869 4.58558 7.22932 4.733 7.41516 4.91884C7.601 5.10468 7.74841 5.32531 7.84899 5.56812C7.94957 5.81093 8.00133 6.07118 8.00133 6.334C8.00133 6.59682 7.94957 6.85706 7.84899 7.09988C7.74841 7.34269 7.601 7.56331 7.41516 7.74916C7.22932 7.935 7.00869 8.08241 6.76588 8.18299C6.52306 8.28357 6.26282 8.33533 6 8.33533C5.47563 8.32576 4.97596 8.11073 4.60851 7.73652C4.24106 7.3623 4.03519 6.85879 4.03519 6.33433C4.03519 5.80987 4.24106 5.30637 4.60851 4.93215C4.97596 4.55793 5.47563 4.3429 6 4.33333M6 5.33333C5.73443 5.33333 5.47974 5.43883 5.29195 5.62662C5.10416 5.8144 4.99867 6.0691 4.99867 6.33467C4.99867 6.60024 5.10416 6.85493 5.29195 7.04272C5.47974 7.2305 5.73443 7.336 6 7.336C6.26101 7.32926 6.50906 7.22084 6.69129 7.03385C6.87352 6.84687 6.9755 6.5961 6.9755 6.335C6.9755 6.0739 6.87352 5.82313 6.69129 5.63614C6.50906 5.44915 6.26101 5.34074 6 5.334" fill="#FF8400"/>
</svg>
